<svg width="500" height="500" viewBox="0 0 500 500" fill="none" xmlns="http://www.w3.org/2000/svg">
<rect width="500" height="500" rx="128" fill="#D8D4E9"/>
<path d="M170.5 440.5C63.5 449 35.5 314.5 71 270C89 303 135.5 307.5 150.5 325.5L170.5 440.5Z" fill="#B2A4EE"/>
<path d="M65.1065 369.5C51.5958 332.686 54.1162 291.164 71 270C83.3667 292.672 109.186 301.892 129 311.279C130.5 316 135.5 331 134 336.5C124 336 111.5 332 103 329C106 338.5 108.5 353.5 107 362C100 360 88 353.5 80 347.5C80 358.5 82 374.5 82.5 378.5C79.5 377.5 68 371.5 65.1065 369.5Z" fill="#F6F4FC"/>
<path d="M329.499 440.5C360.999 389 354.999 311.5 334.499 272.5L249.999 277V440.5H329.499Z" fill="#B2A4EE"/>
<path d="M313.999 383.5C327.499 394.5 310.999 421 308.999 440.5H265.999L269.999 403.5C280.499 389.5 300.499 372.5 313.999 383.5Z" fill="#7362AD"/>
<path d="M321.499 327.5C318.999 307.5 312.999 297.5 306.499 287C249.999 287 249.999 287 249.999 287V440.5H269.499C270.999 409.5 267.499 385 279.499 371.5C291.499 358 323.999 347.5 321.499 327.5Z" fill="#F6F4FC"/>
<path d="M381.999 383.5C380.999 351.5 360.499 341.5 349.499 339C342.833 372.667 329.499 440.1 329.499 440.5C357.999 443 382.999 415.5 381.999 383.5Z" fill="#7362AD"/>
<path d="M170.5 440.5C139 389 145 311.5 165.5 272.5L250 277V440.5H170.5Z" fill="#B2A4EE"/>
<path d="M186 383.5C172.5 394.5 189 421 191 440.5H234L230 403.5C219.5 389.5 199.5 372.5 186 383.5Z" fill="#7362AD"/>
<path d="M178.5 327.5C181 307.5 187 297.5 193.5 287C250 287 250 287 250 287V440.5H230.5C229 409.5 232.5 385 220.5 371.5C208.5 358 176 347.5 178.5 327.5Z" fill="#F6F4FC"/>
<path d="M118 383.5C119 351.5 139.5 341.5 150.5 339C157.166 372.667 170.5 440.1 170.5 440.5C142 443 117 415.5 118 383.5Z" fill="#7362AD"/>
<path d="M334.5 272.5C336.913 277.09 339.124 282.213 341.098 287.765C338.23 289.138 336.004 290.321 334.5 291.131C328.243 294.5 289.095 313.158 274.579 324.807C272.3 334.857 261.445 340.631 251 340.631C240.533 340.631 227.583 334.832 225.34 324.743C210.76 313.091 171.745 294.494 165.5 291.131C163.996 290.321 161.77 289.138 158.901 287.765C160.875 282.213 163.087 277.09 165.5 272.5L250 277L334.5 272.5Z" fill="#7362AD" fill-opacity="0.25"/>
<path d="M333.5 271C343 265 361 258.5 388 256C384.5 251 373 246 370.5 244.5C381 240 404.5 231 409 213.5C386 199 374 174.5 368.5 165C384.5 131.5 390 68.0001 374.5 51.5001C359 49.5001 319.5 70.5001 289 102C273.316 98.0001 267.5 97.0001 250 97.0001V311.5L333.5 271Z" fill="#B2A4EE"/>
<circle cx="12.5" cy="12.5" r="12.5" transform="matrix(-1 0 0 1 314 200)" fill="#7362AD"/>
<path d="M374.499 51.4996C363.985 50.143 342.426 59.3722 320.124 75.2818C346.321 79.7668 368.609 95.7002 381.654 117.751C385.634 89.8326 384.077 61.6945 374.499 51.4996Z" fill="#7362AD"/>
<path d="M348 100.5L363 75C371 94 364.5 129 352.5 144C348 138.5 338 130 333 126L348 100.5Z" fill="#E4DFF5"/>
<path d="M333 126L363 75C340 79 323 98 312.5 112C320.5 117.5 326.5 121 333 126Z" fill="#F6F4FC"/>
<path d="M380.5 208C319.147 208 268.684 254.625 262.612 314.376C265.708 312.993 269.228 310.837 273 307.5C286 296 328 276 334.5 272.5C341 269 361 258.5 388 256C384.5 251 373 246 370.5 244.5C381 240 404.5 231 409 213.5C407.446 212.52 405.943 211.493 404.488 210.43C396.741 208.837 388.718 208 380.5 208Z" fill="#F6F4FC"/>
<path d="M166.5 271C157 265 139 258.5 112 256C115.5 251 127 246 129.5 244.5C119 240 95.5 231 91 213.5C114 199 126 174.5 131.5 165C115.5 131.5 110 68.0001 125.5 51.5001C141 49.5001 180.5 70.5001 211 102C226.684 98.0001 232.5 97.0001 250 97.0001V311.5L166.5 271Z" fill="#C4B9FB"/>
<circle cx="198.5" cy="212.5" r="12.5" fill="#7362AD"/>
<path d="M125.5 51.5001C136.014 50.1434 157.573 59.3727 179.875 75.2823C153.678 79.7674 131.39 95.7006 118.345 117.751C114.365 89.8332 115.923 61.6952 125.5 51.5001Z" fill="#7362AD"/>
<path d="M152 100.5L137 75.0002C129 94.0002 135.5 129 147.5 144C152 138.5 162 130 167 126L152 100.5Z" fill="#E4DFF5"/>
<path d="M167 126L137 75.0002C160 79.0003 177 98.0003 187.5 112C179.5 117.5 173.5 121 167 126Z" fill="#F6F4FC"/>
<path d="M119.5 208C180.853 208 231.316 254.626 237.388 314.376C234.292 312.994 230.772 310.837 227 307.5C214 296 172 276 165.5 272.5C159 269 139 258.5 112 256C115.5 251 127 246 129.5 244.5C119 240 95.5 231 91 213.5C92.5541 212.52 94.0567 211.493 95.5117 210.43C103.259 208.837 111.282 208 119.5 208Z" fill="#F6F4FC"/>
<path d="M275 303C275.5 291 264 286 249.5 286C235 286 225 291 225 303C225 315 239.5 322 251 322C262.5 322 274.5 315 275 303Z" fill="#7362AD"/>
</svg>
